<svg xmlns="http://www.w3.org/2000/svg" xmlns:xlink="http://www.w3.org/1999/xlink" width="500" zoomAndPan="magnify" viewBox="0 0 375 374.999991" height="500" preserveAspectRatio="xMidYMid meet" version="1.0"><defs><g/></defs><rect x="-37.5" width="450" fill="#ffffff" y="-37.499999" height="449.999989" fill-opacity="1"/><rect x="-37.5" width="450" fill="#2b2b2b" y="-37.499999" height="449.999989" fill-opacity="1"/><g fill="#e4e2dd" fill-opacity="1"><g transform="translate(68.524304, 178.4722)"><g><path d="M 3.65625 0 L 3.65625 -12.9375 L 9.765625 -12.9375 C 11.390625 -12.9375 12.203125 -13.789062 12.203125 -15.5 L 12.203125 -72.53125 L 3.78125 -72.53125 L 3.78125 -85.46875 L 27.71875 -85.46875 L 27.59375 -12.203125 C 27.59375 -8.785156 26.410156 -5.894531 24.046875 -3.53125 C 21.691406 -1.175781 18.804688 0 15.390625 0 Z M 3.65625 0 "/></g></g></g><g fill="#e4e2dd" fill-opacity="1"><g transform="translate(97.214592, 178.4722)"><g><path d="M 15.875 0 C 12.457031 0 9.566406 -1.175781 7.203125 -3.53125 C 4.835938 -5.894531 3.65625 -8.785156 3.65625 -12.203125 L 3.65625 -85.59375 L 19.046875 -85.59375 L 19.046875 -15.5 C 19.046875 -14.769531 19.289062 -14.160156 19.78125 -13.671875 C 20.269531 -13.179688 20.878906 -12.9375 21.609375 -12.9375 C 22.335938 -12.9375 22.945312 -13.179688 23.4375 -13.671875 C 23.925781 -14.160156 24.171875 -14.769531 24.171875 -15.5 L 24.171875 -85.59375 L 39.5625 -85.59375 L 39.5625 -12.203125 C 39.5625 -8.785156 38.378906 -5.894531 36.015625 -3.53125 C 33.660156 -1.175781 30.769531 0 27.34375 0 Z M 15.875 0 "/></g></g></g><g fill="#e4e2dd" fill-opacity="1"><g transform="translate(137.747283, 178.4722)"><g><path d="M 13.546875 0 C 10.296875 0 7.53125 -1.195312 5.25 -3.59375 C 2.96875 -6 1.828125 -8.867188 1.828125 -12.203125 L 1.828125 -20.140625 L 17.21875 -20.140625 L 17.21875 -15.390625 C 17.21875 -14.648438 17.460938 -14.035156 17.953125 -13.546875 C 18.441406 -13.054688 19.050781 -12.8125 19.78125 -12.8125 C 20.507812 -12.8125 21.117188 -13.054688 21.609375 -13.546875 C 22.097656 -14.035156 22.34375 -14.648438 22.34375 -15.390625 L 22.34375 -24.546875 C 22.34375 -25.273438 22.097656 -25.882812 21.609375 -26.375 C 21.117188 -26.863281 20.507812 -27.109375 19.78125 -27.109375 L 14.046875 -27.109375 C 10.617188 -27.109375 7.722656 -28.285156 5.359375 -30.640625 C 3.003906 -33.003906 1.828125 -35.894531 1.828125 -39.3125 L 1.828125 -73.140625 C 1.828125 -76.554688 3.003906 -79.441406 5.359375 -81.796875 C 7.722656 -84.160156 10.617188 -85.34375 14.046875 -85.34375 L 17.703125 -85.34375 L 17.703125 -85.46875 L 25.515625 -85.46875 C 28.929688 -85.46875 31.820312 -84.285156 34.1875 -81.921875 C 36.550781 -79.566406 37.734375 -76.675781 37.734375 -73.25 L 37.734375 -47 L 22.34375 -47 L 22.34375 -69.953125 C 22.34375 -70.691406 22.097656 -71.304688 21.609375 -71.796875 C 21.117188 -72.285156 20.507812 -72.53125 19.78125 -72.53125 C 19.050781 -72.53125 18.441406 -72.285156 17.953125 -71.796875 C 17.460938 -71.304688 17.21875 -70.691406 17.21875 -69.953125 L 17.21875 -42.609375 C 17.21875 -41.878906 17.460938 -41.269531 17.953125 -40.78125 C 18.441406 -40.289062 19.050781 -40.046875 19.78125 -40.046875 L 25.515625 -40.046875 C 28.929688 -40.046875 31.820312 -38.863281 34.1875 -36.5 C 36.550781 -34.144531 37.734375 -31.257812 37.734375 -27.84375 L 37.734375 -12.203125 C 37.734375 -8.785156 36.550781 -5.894531 34.1875 -3.53125 C 31.820312 -1.175781 28.929688 0 25.515625 0 Z M 13.546875 0 "/></g></g></g><g fill="#e4e2dd" fill-opacity="1"><g transform="translate(174.617372, 178.4722)"><g><path d="M 10.375 0 L 10.375 -72.53125 L 1.828125 -72.53125 L 1.828125 -85.46875 L 34.3125 -85.46875 L 34.3125 -72.53125 L 25.765625 -72.53125 L 25.765625 0 Z M 10.375 0 "/></g></g></g><g fill="#e4e2dd" fill-opacity="1"><g transform="translate(208.069053, 178.4722)"><g><path d="M 3.65625 0 L 3.65625 -85.46875 L 19.046875 -85.46875 L 19.046875 0 Z M 3.65625 0 "/></g></g></g><g fill="#e4e2dd" fill-opacity="1"><g transform="translate(228.091189, 178.4722)"><g><path d="M 3.65625 0 L 3.65625 -85.46875 L 17.953125 -85.46875 L 24.046875 -47.609375 L 24.046875 -85.46875 L 39.5625 -85.46875 L 39.5625 0 L 25.03125 0 L 19.046875 -37.84375 L 19.046875 0 Z M 3.65625 0 "/></g></g></g><g fill="#e4e2dd" fill-opacity="1"><g transform="translate(268.623891, 178.4722)"><g><path d="M 3.65625 0 L 3.65625 -85.46875 L 36.015625 -85.46875 L 36.015625 -72.53125 L 19.046875 -72.53125 L 19.046875 -46.03125 L 31.140625 -46.03125 L 31.140625 -33.09375 L 19.046875 -33.09375 L 19.046875 -12.9375 L 36.015625 -12.9375 L 36.015625 0 Z M 3.65625 0 "/></g></g></g><g fill="#e4e2dd" fill-opacity="1"><g transform="translate(101.06011, 268.74997)"><g><path d="M 15.875 0 C 12.457031 0 9.566406 -1.175781 7.203125 -3.53125 C 4.835938 -5.894531 3.65625 -8.785156 3.65625 -12.203125 L 3.65625 -73.25 C 3.65625 -76.675781 4.835938 -79.566406 7.203125 -81.921875 C 9.566406 -84.285156 12.457031 -85.46875 15.875 -85.46875 L 27.34375 -85.46875 C 30.769531 -85.46875 33.660156 -84.285156 36.015625 -81.921875 C 38.378906 -79.566406 39.5625 -76.675781 39.5625 -73.25 L 39.5625 -33.09375 L 24.171875 -33.09375 L 24.171875 -70.078125 C 24.171875 -70.816406 23.925781 -71.425781 23.4375 -71.90625 C 22.945312 -72.394531 22.335938 -72.640625 21.609375 -72.640625 C 20.878906 -72.640625 20.269531 -72.394531 19.78125 -71.90625 C 19.289062 -71.425781 19.046875 -70.816406 19.046875 -70.078125 L 19.046875 -15.5 C 19.046875 -14.769531 19.289062 -14.160156 19.78125 -13.671875 C 20.269531 -13.179688 20.878906 -12.9375 21.609375 -12.9375 C 22.335938 -12.9375 22.945312 -13.179688 23.4375 -13.671875 C 23.925781 -14.160156 24.171875 -14.769531 24.171875 -15.5 L 24.171875 -18.0625 L 21 -19.40625 L 21 -27.46875 L 39.5625 -27.46875 L 39.5625 0 L 24.171875 0 L 24.171875 -3.296875 C 22.460938 -1.585938 20.507812 -0.488281 18.3125 0 Z M 15.875 0 "/></g></g></g><g fill="#e4e2dd" fill-opacity="1"><g transform="translate(141.592801, 268.74997)"><g><path d="M 1.828125 0 L 10.859375 -85.46875 L 32.109375 -85.46875 L 41.265625 0 L 25.890625 0 L 24.90625 -12.703125 L 18.1875 -12.703125 L 17.21875 0 Z M 19.171875 -25.640625 L 23.9375 -25.640625 L 21.484375 -57.875 Z M 19.171875 -25.640625 "/></g></g></g><g fill="#e4e2dd" fill-opacity="1"><g transform="translate(182.003417, 268.74997)"><g><path d="M 3.65625 0 L 3.65625 -85.46875 L 27.34375 -85.46875 C 30.769531 -85.46875 33.660156 -84.285156 36.015625 -81.921875 C 38.378906 -79.566406 39.5625 -76.675781 39.5625 -73.25 L 39.5625 -12.203125 C 39.5625 -8.785156 38.378906 -5.894531 36.015625 -3.53125 C 33.660156 -1.175781 30.769531 0 27.34375 0 Z M 19.046875 -12.9375 L 21.609375 -12.9375 C 22.335938 -12.9375 22.945312 -13.179688 23.4375 -13.671875 C 23.925781 -14.160156 24.171875 -14.769531 24.171875 -15.5 L 24.171875 -70.078125 C 24.171875 -70.816406 23.925781 -71.425781 23.4375 -71.90625 C 22.945312 -72.394531 22.335938 -72.640625 21.609375 -72.640625 L 19.046875 -72.640625 Z M 19.046875 -12.9375 "/></g></g></g><g fill="#e4e2dd" fill-opacity="1"><g transform="translate(222.536103, 268.74997)"><g><path d="M 3.65625 0 L 3.65625 -85.46875 L 19.046875 -85.46875 L 19.046875 0 Z M 3.65625 0 "/></g></g></g><g fill="#e4e2dd" fill-opacity="1"><g transform="translate(242.558239, 268.74997)"><g><path d="M 3.65625 0 L 3.65625 -85.46875 L 19.046875 -85.46875 L 19.046875 -12.9375 L 29.546875 -12.9375 L 29.546875 0 Z M 3.65625 0 "/></g></g></g></svg>